<svg height="511pt" viewBox="0 1 511 511.99958" width="511pt" xmlns="http://www.w3.org/2000/svg"><path d="m241.566406 368.621094c27.863282-62.105469 66.03125-120.671875 113.84375-171.65625 6.386719 3.910156 15.847656 2.277344 22.457032-4.332032 7.511718-7.511718 8.601562-18.710937 2.425781-24.890624l-35.535157-35.535157c-6.179687-6.175781-17.378906-5.085937-24.890624 2.425781-6.609376 6.609376-8.242188 16.070313-4.332032 22.457032-50.984375 47.8125-109.550781 85.980468-171.652344 113.84375-11.519531 5.167968-22.585937 12.691406-32.378906 22.488281l-106.730468 106.726563c-5.699219 5.699218-5.699219 14.9375 0 20.636718l86.941406 86.941406c5.699218 5.699219 14.9375 5.699219 20.636718 0l106.726563-106.730468c9.796875-9.792969 17.320313-20.859375 22.488281-32.375zm0 0" fill="#99e6fc"/><path d="m380.289062 167.742188-35.53125-35.535157c-6.179687-6.175781-17.378906-5.085937-24.890624 2.425781-.644532.640626-1.222657 1.316407-1.769532 2.007813l31.101563 31.101563c6.175781 6.179687 5.085937 17.378906-2.425781 24.890624-3.855469 3.855469-8.679688 6.015626-13.300782 6.371094-7.511718.582032-14.585937 3.761719-19.597656 9.386719-42.957031 48.234375-77.597656 102.714844-103.402344 160.230469-5.167968 11.515625-12.691406 22.582031-22.484375 32.375l-101.5 101.5 5.226563 5.230468c5.699218 5.699219 14.9375 5.699219 20.636718 0l106.726563-106.730468c9.796875-9.792969 17.320313-20.859375 22.488281-32.375 27.863282-62.105469 66.03125-120.671875 113.84375-171.65625 6.386719 3.910156 15.847656 2.277344 22.457032-4.332032 7.511718-7.511718 8.601562-18.710937 2.421874-24.890624zm0 0" fill="#62dbfb"/><path d="m443.757812 38.210938-11.816406 11.816406c-5.578125 5.578125-5.578125 14.621094 0 20.203125l10.316406 10.316406c5.578126 5.578125 14.621094 5.578125 20.203126 0l11.816406-11.820313c.015625-.011718.035156-.011718.050781 0 9.070313 8.675782 23.742187 8.300782 32.324219-1.128906 8.1875-8.996094 7.429687-22.992187-1.171875-31.59375l-28.996094-29c-8.601563-8.597656-22.59375-9.355468-31.59375-1.167968-9.433594 8.582031-9.804687 23.25-1.132813 32.324218.015626.011719.015626.035156 0 .050782zm0 0" fill="#fed402"/><path d="m505.90625 36.429688-29.847656-29.851563c-8.648438-8.644531-22.703125-8.761719-31.519532-.386719.136719.132813.289063.25.425782.386719l29.847656 29.851563c8.789062 8.785156 8.789062 23.160156 0 31.945312-.136719.140625-.289062.257812-.433594.394531 8.816406 8.378907 22.878906 8.257813 31.527344-.394531 8.785156-8.785156 8.785156-23.160156 0-31.945312zm0 0" fill="#fac600"/><path d="m304.132812 259.535156-51.167968-51.167968c-12.125 8.667968-24.527344 16.878906-37.171875 24.621093-4.042969 2.476563-4.953125 19.726563-4.953125 19.726563s-16.183594-7.3125-20.683594-4.835938c-15.15625 8.335938-30.605469 16.023438-46.277344 23.054688-11.515625 5.167968-22.582031 12.691406-32.378906 22.488281l-106.726562 106.726563c-5.699219 5.699218-5.699219 14.9375 0 20.636718l86.941406 86.941406c5.699218 5.699219 14.9375 5.699219 20.636718 0l106.726563-106.730468c9.796875-9.792969 17.320313-20.859375 22.488281-32.375 7.03125-15.675782 14.71875-31.121094 23.054688-46.277344 2.378906-4.320312-3.078125-18.078125-3.078125-18.078125s15.382812-3.339844 17.96875-7.558594c7.742187-12.644531 15.953125-25.046875 24.621093-37.171875zm0 0" fill="#24b4c1"/><path d="m252.964844 208.367188c-6.070313 4.339843-12.214844 8.558593-18.421875 12.667968l38.5 38.5c-24.613281 34.421875-45.523438 71.089844-62.570313 109.085938-5.167968 11.515625-12.691406 22.582031-22.484375 32.375l-101.503906 101.5 5.230469 5.230468c5.699218 5.699219 14.9375 5.699219 20.636718 0l106.726563-106.730468c9.796875-9.792969 17.320313-20.859375 22.488281-32.375 7.03125-15.675782 14.71875-31.121094 23.054688-46.277344 2.378906-4.320312-3.078125-18.078125-3.078125-18.078125s15.382812-3.339844 17.96875-7.558594c7.742187-12.644531 15.953125-25.046875 24.621093-37.171875zm0 0" fill="#0cacba"/><path d="m215.792969 232.988281c-8.445313 5.167969-16.992188 10.136719-25.636719 14.890625l20.957031 48.167969c1.039063 2.390625 2.945313 4.300781 5.335938 5.339844l48.171875 20.957031c2.273437-4.132812-3.078125-18.078125-3.078125-18.078125s15.269531-3.152344 17.96875-7.558594zm0 0" fill="#fee97d"/><path d="m260.527344 277.722656c-7.328125 11.058594-14.289063 22.320313-20.875 33.757813l24.96875 10.863281c.285156-.515625.574218-1.027344.859375-1.542969.519531-.9375 1.042969-1.875 1.566406-2.808593.71875-1.277344 1.4375-2.554688 2.164063-3.832032.5625-.992187 1.132812-1.980468 1.699218-2.96875.679688-1.175781 1.359375-2.347656 2.042969-3.515625.636719-1.085937 1.273437-2.167969 1.914063-3.246093.636718-1.074219 1.277343-2.144532 1.921874-3.214844.675782-1.128906 1.355469-2.253906 2.039063-3.378906.230469-.375.453125-.753907.683594-1.128907zm0 0" fill="#fedf30"/><path d="m82.449219 429.488281c-15.117188-15.113281-15.117188-39.847656 0-54.960937l33.464843-33.46875c15.117188-15.113282 39.847657-15.113282 54.960938 0 15.117188 15.117187 15.117188 39.847656 0 54.960937l-33.464844 33.46875c-15.117187 15.113281-39.847656 15.113281-54.960937 0zm0 0" fill="#fee97d"/><path d="m170.875 341.058594c-11.578125-11.578125-28.804688-14.277344-43.023438-8.109375 4.335938 1.882812 8.398438 4.578125 11.933594 8.109375 15.113282 15.117187 15.113282 39.847656 0 54.960937l-33.46875 33.46875c-3.53125 3.535157-7.597656 6.230469-11.933594 8.109375 14.222657 6.167969 31.445313 3.472656 43.027344-8.109375l33.464844-33.46875c15.117188-15.113281 15.117188-39.84375 0-54.960937zm0 0" fill="#fedf30"/><g fill="#2abcc8"><path d="m33.882812 407.171875c-2.894531-2.894531-7.582031-2.894531-10.476562 0-2.894531 2.890625-2.894531 7.582031 0 10.476563 2.894531 2.890624 7.582031 2.890624 10.476562 0 2.894532-2.894532 2.894532-7.585938 0-10.476563zm0 0"/><path d="m150.804688 290.25c-2.890626-2.894531-7.582032-2.894531-10.476563 0-2.890625 2.894531-2.890625 7.582031 0 10.476562 2.894531 2.894532 7.585937 2.894532 10.476563 0 2.894531-2.894531 2.894531-7.582031 0-10.476562zm0 0"/><path d="m106.835938 480.125c-2.894532-2.894531-7.585938-2.894531-10.476563 0-2.894531 2.890625-2.894531 7.582031 0 10.476562 2.890625 2.890626 7.582031 2.890626 10.476563 0 2.890624-2.894531 2.890624-7.585937 0-10.476562zm0 0"/><path d="m223.757812 363.203125c-2.894531-2.894531-7.582031-2.894531-10.476562 0-2.894531 2.890625-2.894531 7.582031 0 10.476563 2.894531 2.890624 7.582031 2.890624 10.476562 0 2.894532-2.894532 2.894532-7.585938 0-10.476563zm0 0"/></g><path d="m347.644531 101.46875c-1.84375 0-3.691406-.652344-5.175781-1.976562-3.203125-2.859376-3.476562-7.773438-.617188-10.976563 5.242188-5.863281 7.886719-13.421875 7.445313-21.277344-.4375-7.855469-3.910156-15.066406-9.777344-20.308593-3.203125-2.859376-3.476562-7.773438-.617187-10.976563 2.863281-3.199219 7.773437-3.476563 10.976562-.617187 8.960938 8.011718 14.269532 19.03125 14.941406 31.03125.671876 12.003906-3.367187 23.546874-11.378906 32.507812-1.53125 1.71875-3.660156 2.59375-5.796875 2.59375zm0 0" fill="#e1d3ce"/><path d="m467.308594 171.515625c-2.132813 0-4.261719-.875-5.796875-2.59375-10.820313-12.109375-29.476563-13.15625-41.585938-2.332031-3.203125 2.859375-8.113281 2.585937-10.976562-.617188-2.859375-3.199218-2.582031-8.113281.617187-10.972656 18.5-16.535156 47.003906-14.9375 63.539063 3.5625 2.859375 3.203125 2.585937 8.117188-.617188 10.976562-1.484375 1.324219-3.335937 1.976563-5.179687 1.976563zm0 0" fill="#e1d3ce"/><path d="m384.179688 131.824219c-1.988282 0-3.980469-.757813-5.496094-2.277344-3.035156-3.035156-3.035156-7.957031 0-10.992187l22.441406-22.441407c3.035156-3.035156 7.957031-3.035156 10.992188 0 3.035156 3.035157 3.035156 7.957031 0 10.992188l-22.441407 22.441406c-1.519531 1.519531-3.507812 2.277344-5.496093 2.277344zm0 0" fill="#e1d3ce"/><path d="m146.5625 393.511719c-1.988281 0-3.980469-.757813-5.496094-2.277344l-14.765625-14.765625c-3.035156-3.035156-3.035156-7.957031 0-10.992188 3.035157-3.035156 7.957031-3.039062 10.992188 0l14.765625 14.765626c3.035156 3.035156 3.035156 7.957031 0 10.992187-1.515625 1.519531-3.507813 2.277344-5.496094 2.277344zm0 0" fill="#fac600"/><path d="m124.511719 415.5625c-1.988281 0-3.980469-.757812-5.496094-2.277344l-14.769531-14.765625c-3.035156-3.035156-3.035156-7.957031 0-10.992187 3.039062-3.035156 7.960937-3.035156 10.992187 0l14.769531 14.765625c3.035157 3.035156 3.035157 7.957031 0 10.992187-1.519531 1.519532-3.507812 2.277344-5.496093 2.277344zm0 0" fill="#fac600"/></svg>